# Blender v2.93.4 OBJ File: 'Rock.blend'
# www.blender.org
mtllib Rock.mtl
o Icosphere.012_Icosphere.013
v 2.975336 6.568503 9.961050
v 3.230436 6.420509 9.800981
v 2.989679 6.677631 9.925725
v 2.653776 6.820194 10.076805
v -11.336110 16.761347 10.577792
v -11.487346 16.732208 10.427040
v -11.533339 16.736370 10.637282
v -11.398115 16.711142 10.715313
v -10.386596 8.936789 15.534312
v -10.516719 8.922815 15.480580
v -10.486244 8.723859 15.464649
v -10.333873 8.728800 15.531090
v 2.721388 -15.372915 2.796641
v 2.591981 -15.448522 2.901207
v 2.554469 -15.487010 2.774481
v 10.427327 -4.236307 5.699886
v 10.330514 -4.324958 5.769026
v 10.400162 -4.368037 5.644500
v 14.762403 -1.476632 -1.174932
v 14.814719 -1.530586 -1.384819
v 14.691135 -1.436362 -1.588730
v 14.802660 -1.412005 -1.315045
v -20.856524 0.281118 -8.848092
v -20.753950 0.588393 -8.520236
v -20.839224 0.353099 -9.005031
v -20.799372 0.248751 -8.989955
v -4.133704 -16.458221 2.846403
v -4.308677 -16.387135 2.800950
v -4.171389 -16.489115 2.726866
v 2.761795 -12.181597 -1.936776
v 2.925826 -12.136168 -1.850561
v 9.995044 -2.284730 -7.370113
v 10.000694 -2.400034 -7.312786
v 9.845034 -2.445088 -7.421101
v 9.741941 -2.244950 -7.528230
v 1.975473 6.583160 -10.713593
v 2.318773 6.275365 -10.653145
v 1.929933 6.466511 -10.869314
v 1.821314 6.555451 -10.859810
v -8.901907 0.375320 -14.254883
v -8.598401 0.397529 -14.204225
v -8.877208 0.266578 -14.230907
vt 0.742592 0.473081
vt 0.884970 0.668925
vt 0.884999 0.920334
vt 0.798083 0.121240
vt 0.910355 0.394160
vt 0.770455 0.313834
vt 0.883953 0.663482
vt 0.744284 0.471391
vt 0.871290 0.466468
vt 0.795367 0.125415
vt 0.768323 0.313837
vt 0.654823 0.343418
vt 0.568514 0.002244
vt 0.649908 0.100697
vt 0.344209 0.306897
vt 0.650030 0.104275
vt 0.621203 0.477304
vt 0.339963 0.313436
vt 0.653863 0.836627
vt 0.336984 0.642871
vt 0.022239 0.424223
vt 0.336984 0.245182
vt 0.910697 0.397141
vt 0.998794 0.417611
vt 0.869393 0.463890
vt 0.769195 0.316363
vt 0.867526 0.461881
vt 0.662281 0.463714
vt 0.910601 0.394366
vt 0.998760 0.002324
vt 0.998700 0.414842
vt 0.769597 0.316606
vt 0.908146 0.396192
vt 0.653114 0.346864
vt 0.769059 0.316469
vt 0.881183 0.922193
vt 0.781758 0.951085
vt 0.658252 0.841446
vt 0.444805 0.459889
vt 0.337070 0.242020
vt 0.020797 0.421866
vt 0.001458 0.243037
vt 0.269295 0.131247
vt 0.139822 0.002250
vt 0.001449 0.243013
vt 0.621616 0.479506
vt 0.649908 0.645178
vt 0.448408 0.462429
vt 0.885808 0.669165
vt 0.885637 0.668925
vt 0.882836 0.664294
vt 0.741925 0.470986
vt 0.743167 0.472203
vt 0.872639 0.465927
vt 0.872739 0.467483
vt 0.884539 0.922656
vt 0.884432 0.921901
vt 0.885932 0.920758
vt 0.339992 0.312071
vt 0.339590 0.314216
vt 0.998723 0.416468
vt 0.999899 0.416614
vt 0.998635 0.417061
vt 0.780887 0.952159
vt 0.778420 0.949969
vt 0.653711 0.837047
vt 0.652730 0.838391
vt 0.651942 0.837692
vt 0.444760 0.460350
vt 0.448544 0.461055
vt 0.444912 0.461122
vt 0.870814 0.465104
vt 0.743168 0.470052
vt 0.885637 0.673725
vt 0.740835 0.473436
vt 0.652133 0.836910
vt 0.566885 0.002127
vt 0.339665 0.310740
vt 1.000000 0.414121
vt 1.000000 0.002732
vt 0.782604 0.952277
vt 0.663354 0.465017
vt 0.868384 0.463169
vt 0.444272 0.460487
vt 0.650608 0.647677
vt 0.998561 0.002646
vt 0.910633 0.394279
vt 0.742391 0.472450
vt 0.881568 0.923519
vt 0.341225 0.314171
vt 0.657335 0.842479
vt 0.885637 0.668146
vt 0.885637 0.919175
vn 0.2732 0.9548 0.1171
vn 0.6375 0.5794 0.5078
vn 0.8926 0.4493 0.0370
vn 0.4470 -0.0141 0.8944
vn 0.3615 -0.7318 0.5777
vn 0.4842 -0.3121 0.8174
vn 0.4860 0.4311 0.7602
vn 0.0570 0.7241 0.6874
vn -0.0094 0.2606 0.9654
vn 0.6901 0.2847 0.6654
vn 0.7730 -0.0658 0.6309
vn 0.8980 0.0121 0.4398
vn -0.6737 0.0987 0.7324
vn -0.6078 0.7159 0.3436
vn -0.9503 0.2728 0.1500
vn -0.3296 0.8984 -0.2901
vn 0.1132 0.6916 -0.7133
vn -0.7655 0.2358 -0.5987
vn 0.4706 0.8010 -0.3700
vn -0.6297 -0.3004 0.7164
vn -0.9537 -0.2886 0.0849
vn -0.6269 -0.6906 0.3607
vn 0.3300 -0.9256 -0.1856
vn -0.2165 -0.9597 -0.1790
vn 0.2438 -0.7217 -0.6478
vn 0.7662 -0.5680 0.3004
vn 0.6206 -0.6598 -0.4238
vn 0.6834 -0.5227 -0.5097
vn -0.0012 -0.2045 0.9789
vn -0.1133 -0.7860 0.6077
vn 0.7189 -0.6939 -0.0420
vn 0.8969 -0.4009 -0.1868
vn 0.8136 0.2394 -0.5299
vn 0.6842 0.0119 -0.7292
vn 0.6433 0.4516 -0.6182
vn -0.1938 0.2429 -0.9505
vn -0.6189 -0.5647 -0.5459
vn -0.0798 -0.4698 -0.8791
vn 0.4463 -0.4874 -0.7505
vn 0.4206 0.3242 -0.8474
vn 0.4323 -0.0916 -0.8971
vn 0.2234 -0.0533 -0.9733
usemtl Rock
s 1
f 5/1/1 3/2/2 22/3/3
f 1/4/4 14/5/5 17/6/6
f 4/7/7 8/8/8 9/9/9
f 2/10/10 16/11/11 19/12/12
f 10/13/13 7/14/14 24/15/15
f 6/16/16 39/17/17 25/18/18
f 5/1/1 22/3/3 36/19/19
f 11/20/20 23/21/21 28/22/22
f 15/23/23 29/24/24 30/25/25
f 18/26/26 31/27/27 33/28/28
f 14/29/5 12/30/29 27/31/30
f 18/32/26 13/33/31 31/27/27
f 20/34/32 18/35/26 33/28/28
f 21/36/33 32/37/34 37/38/35
f 25/18/18 39/17/17 40/39/36
f 29/40/24 26/41/37 42/42/38
f 30/43/25 29/40/24 42/42/38
f 34/44/39 30/43/25 42/45/38
f 38/46/40 35/47/41 41/48/42
f 1/49/4 3/50/2 4/51/7
f 5/1/1 7/52/14 8/53/8
f 9/9/9 11/54/20 12/55/29
f 13/33/31 14/29/5 15/23/23
f 16/11/11 17/6/6 18/35/26
f 20/56/32 22/57/3 19/58/12
f 23/59/21 25/18/18 26/60/37
f 27/61/30 28/62/22 29/63/24
f 32/37/34 34/64/39 35/65/41
f 36/66/19 38/67/40 39/68/17
f 40/69/36 41/70/42 42/71/38
f 12/55/29 4/7/7 9/9/9
f 5/1/1 4/7/7 3/2/2
f 10/72/13 8/8/8 7/73/14
f 2/74/10 22/3/3 3/2/2
f 2/10/10 17/6/6 16/11/11
f 13/33/31 17/6/6 14/5/5
f 18/35/26 19/12/12 16/11/11
f 6/75/16 36/19/19 39/76/17
f 37/38/35 22/3/3 21/36/33
f 11/77/20 24/15/15 23/78/21
f 6/16/16 24/15/15 7/14/14
f 15/23/23 27/31/30 29/24/24
f 28/79/22 12/30/29 11/80/20
f 30/25/25 13/33/31 15/23/23
f 21/36/33 33/81/28 32/37/34
f 26/41/37 28/22/22 23/21/21
f 34/82/39 31/27/27 30/83/25
f 35/65/41 37/38/35 32/37/34
f 26/60/37 40/39/36 42/84/38
f 41/48/42 39/17/17 38/46/40
f 41/48/42 34/85/39 42/71/38
f 1/4/4 12/86/29 14/87/5
f 1/49/4 2/74/10 3/50/2
f 5/1/1 6/88/16 7/52/14
f 9/9/9 10/72/13 11/54/20
f 20/56/32 21/89/33 22/57/3
f 23/59/21 24/90/15 25/18/18
f 32/37/34 33/81/28 34/64/39
f 36/66/19 37/91/35 38/67/40
f 12/55/29 1/92/4 4/7/7
f 5/1/1 8/8/8 4/7/7
f 10/72/13 9/9/9 8/8/8
f 2/74/10 19/93/12 22/3/3
f 2/10/10 1/4/4 17/6/6
f 13/33/31 18/32/26 17/6/6
f 18/35/26 20/34/32 19/12/12
f 6/75/16 5/1/1 36/19/19
f 37/38/35 36/19/19 22/3/3
f 11/77/20 10/13/13 24/15/15
f 6/16/16 25/18/18 24/15/15
f 15/23/23 14/29/5 27/31/30
f 28/79/22 27/31/30 12/30/29
f 30/25/25 31/27/27 13/33/31
f 21/36/33 20/56/32 33/81/28
f 26/41/37 29/40/24 28/22/22
f 34/82/39 33/28/28 31/27/27
f 35/65/41 38/67/40 37/38/35
f 26/60/37 25/18/18 40/39/36
f 41/48/42 40/39/36 39/17/17
f 41/48/42 35/47/41 34/85/39
