# Blender v2.93.4 OBJ File: 'Symbol5.blend'
# www.blender.org
mtllib Symbol5.mtl
o Cube_Cube.001
v -0.500000 -3.600000 1.200000
v -0.500000 -3.345442 1.541421
v -0.500000 -2.774558 1.858579
v -0.500000 -2.160000 2.000000
v -0.500000 2.160000 2.000000
v -0.500000 2.774558 1.858579
v -0.500000 3.345442 1.541421
v -0.500000 3.600000 1.200000
v -0.500000 -2.160000 -2.000000
v -0.500000 -2.774558 -1.858579
v -0.500000 -3.345442 -1.541421
v -0.500000 -3.600000 -1.200000
v -0.500000 3.600000 -1.200000
v -0.500000 3.345442 -1.541421
v -0.500000 2.774558 -1.858579
v -0.500000 2.160000 -2.000000
v 0.500000 -1.945174 1.400000
v 0.500000 -2.162787 1.349923
v 0.500000 -2.429862 1.201549
v 0.500000 -2.520000 1.080652
v 0.500000 2.520000 1.080652
v 0.500000 2.429862 1.201549
v 0.500000 2.162787 1.349923
v 0.500000 1.945174 1.400000
v 0.500000 -2.520000 -1.080652
v 0.500000 -2.429862 -1.201549
v 0.500000 -2.162787 -1.349923
v 0.500000 -1.945174 -1.400000
v 0.500000 1.945174 -1.400000
v 0.500000 2.162787 -1.349923
v 0.500000 2.429862 -1.201549
v 0.500000 2.520000 -1.080652
v 0.500000 -3.345442 -1.541421
v 0.500000 -3.600000 -1.200000
v 0.500000 -2.160000 -2.000000
v 0.500000 -2.774558 -1.858579
v 0.500000 3.600000 -1.200000
v 0.500000 3.345442 -1.541421
v 0.500000 2.774558 -1.858579
v 0.500000 2.160000 -2.000000
v 0.500000 -3.600000 1.200000
v 0.500000 -3.345442 1.541421
v 0.500000 -2.774558 1.858579
v 0.500000 -2.160000 2.000000
v 0.500000 3.345442 1.541421
v 0.500000 3.600000 1.200000
v 0.500000 2.160000 2.000000
v 0.500000 2.774558 1.858579
v 0.300000 -2.429862 -1.201549
v 0.300000 -2.520000 -1.080652
v 0.300000 -1.945174 -1.400000
v 0.300000 -2.162787 -1.349923
v 0.300000 2.520000 -1.080652
v 0.300000 2.429862 -1.201549
v 0.300000 2.162787 -1.349923
v 0.300000 1.945174 -1.400000
v 0.300000 -2.520000 1.080652
v 0.300000 -2.429862 1.201549
v 0.300000 -2.162787 1.349923
v 0.300000 -1.945174 1.400000
v 0.300000 2.429862 1.201549
v 0.300000 2.520000 1.080652
v 0.300000 1.945174 1.400000
v 0.300000 2.162787 1.349923
vt 0.767206 1.000000
vt 0.852451 0.951335
vt 0.852451 1.000000
vt 0.767206 0.429635
vt 0.681960 0.478300
vt 0.681960 0.429635
vt 0.852451 0.898947
vt 0.767206 0.530688
vt 0.852451 0.530688
vt 0.681960 1.000000
vt 0.767206 0.951335
vt 0.767206 1.000000
vt 0.767206 0.898947
vt 0.681960 0.530688
vt 0.767206 0.530688
vt 0.869500 0.452402
vt 0.852451 0.429635
vt 0.869500 0.429635
vt 0.000000 0.847457
vt 0.085245 0.642869
vt 0.085245 0.847457
vt 0.085245 0.847457
vt 0.170490 0.642869
vt 0.170490 0.847457
vt 0.669905 0.543400
vt 0.642869 0.592064
vt 0.613764 0.613764
vt 0.000000 0.876562
vt 0.767206 0.478300
vt 0.085245 0.876562
vt 0.681960 0.951335
vt 0.681960 0.898947
vt 0.000000 0.642869
vt 0.085245 0.613764
vt 0.852451 0.478300
vt 0.085245 0.642869
vt 0.170490 0.613764
vt 0.767206 0.951335
vt 0.767206 0.898947
vt 0.852451 0.429635
vt 0.767206 0.478300
vt 0.767206 0.429635
vt 0.078370 0.521700
vt 0.039091 0.592064
vt 0.068064 0.514016
vt 0.055416 0.491249
vt 0.000000 0.491011
vt 0.051147 0.472699
vt 0.078370 0.092065
vt 0.039092 0.021700
vt 0.068196 0.000000
vt 0.055416 0.122515
vt 0.000000 0.122753
vt 0.012055 0.070365
vt 0.262610 0.521700
vt 0.301889 0.592064
vt 0.272784 0.613764
vt 0.285564 0.491249
vt 0.340980 0.491012
vt 0.328925 0.543400
vt 0.262610 0.092065
vt 0.301889 0.021700
vt 0.272916 0.099748
vt 0.285564 0.122515
vt 0.340980 0.122753
vt 0.289833 0.141066
vt 0.272916 0.514016
vt 0.068196 0.613764
vt 0.289833 0.472699
vt 0.328925 0.070365
vt 0.272784 0.000000
vt 0.012055 0.543399
vt 0.051147 0.141066
vt 0.068064 0.099748
vt 0.687083 0.030451
vt 0.702261 0.007684
vt 0.714628 0.000000
vt 0.187539 0.624070
vt 0.170490 0.613764
vt 0.187539 0.613764
vt 0.187539 0.624070
vt 0.204588 0.808311
vt 0.187539 0.808311
vt 0.869500 0.821136
vt 0.852451 0.802585
vt 0.869500 0.802585
vt 0.869500 0.821136
vt 0.886549 0.843903
vt 0.869500 0.843903
vt 0.187539 0.613764
vt 0.204588 0.624070
vt 0.869500 0.470952
vt 0.886549 0.802585
vt 0.869500 0.802585
vt 0.869500 0.470952
vt 0.852451 0.452402
vt 0.187539 0.818617
vt 0.170490 0.808311
vt 0.187539 0.808311
vt 0.869500 0.429635
vt 0.886549 0.452402
vt 0.869500 0.452402
vt 0.869500 0.843903
vt 0.852451 0.821136
vt 0.886549 0.821136
vt 0.170490 0.624070
vt 0.204588 0.818617
vt 0.187539 0.818617
vt 0.852451 0.470952
vt 0.886549 0.470952
vt 0.409176 0.613764
vt 0.340980 0.491012
vt 0.380072 0.592064
vt 0.353036 0.543399
vt 0.340980 0.122753
vt 0.681961 0.122753
vt 0.353036 0.070365
vt 0.409176 0.000000
vt 0.380072 0.021700
vt 0.613765 0.000000
vt 0.642869 0.021700
vt 0.669905 0.070365
vt 0.681960 0.491012
vt 0.085245 0.876562
vt 0.170490 0.876562
vt 0.000000 0.613764
vt 0.085245 0.613764
vt 0.935717 0.000000
vt 0.968384 0.049001
vt 0.948084 0.007684
vt 0.963261 0.030451
vt 0.968384 0.380634
vt 0.681960 0.380634
vt 0.963261 0.399185
vt 0.935717 0.429635
vt 0.948083 0.421951
vt 0.714628 0.429635
vt 0.702261 0.421951
vt 0.687083 0.399185
vt 0.681961 0.049001
vt 0.204588 0.613764
vt 0.170490 0.818617
vt 0.886549 0.429635
vt 0.852451 0.843903
vn 0.0000 0.6583 0.7527
vn 0.0000 0.3585 0.9335
vn 0.0000 -0.6583 -0.7527
vn 0.0000 -0.3585 -0.9335
vn 0.0000 0.1128 0.9936
vn 0.0000 -0.1128 0.9936
vn 0.0000 0.6583 -0.7527
vn 0.0000 0.3585 -0.9335
vn 0.0000 0.1128 -0.9936
vn 0.0000 -0.1128 -0.9936
vn 0.0000 -1.0000 0.0000
vn 0.0000 1.0000 0.0000
vn -1.0000 0.0000 0.0000
vn 0.0000 -0.8017 -0.5977
vn 0.0000 0.8017 -0.5977
vn 0.0000 -0.8017 0.5977
vn 0.0000 -0.6583 0.7527
vn 0.0000 -0.3585 0.9335
vn 0.0000 0.8017 0.5977
vn 1.0000 0.0000 0.0000
usemtl StoneTablet
s 1
f 7/1/1 48/2/2 45/3/1
f 11/4/3 36/5/4 33/6/3
f 47/7/5 4/8/6 44/9/6
f 38/10/7 15/11/8 14/12/7
f 16/13/9 35/14/10 9/15/10
f 23/16/4 61/17/3 22/18/3
f 34/19/11 1/20/11 12/21/11
f 13/22/12 46/23/12 37/24/12
f 10/25/13 11/26/13 12/27/13
f 12/21/14 33/28/3 34/19/14
f 35/14/10 10/29/4 9/15/10
f 37/24/15 14/30/7 13/22/15
f 16/13/9 39/31/8 40/32/9
f 41/33/16 2/34/17 1/20/16
f 4/8/6 43/35/18 44/9/6
f 8/36/19 45/37/1 46/23/19
f 47/7/5 6/38/2 5/39/5
f 42/40/17 3/41/18 2/42/17
f 25/43/20 33/44/20 26/45/20
f 27/46/20 35/47/20 28/48/20
f 32/49/20 38/50/20 37/51/20
f 30/52/20 40/53/20 39/54/20
f 20/55/20 42/56/20 41/57/20
f 18/58/20 44/59/20 43/60/20
f 21/61/20 45/62/20 22/63/20
f 23/64/20 47/65/20 24/66/20
f 19/67/20 43/60/20 42/56/20
f 20/55/20 34/68/20 25/43/20
f 24/66/20 44/59/20 17/69/20
f 22/63/20 48/70/20 23/64/20
f 32/49/20 46/71/20 21/61/20
f 26/45/20 36/72/20 27/46/20
f 28/48/20 40/53/20 29/73/20
f 31/74/20 39/54/20 38/50/20
f 59/75/20 58/76/20 57/77/20
f 20/78/15 58/79/7 19/80/7
f 21/81/11 53/82/11 32/83/11
f 18/84/8 60/85/9 17/86/9
f 27/87/2 49/88/1 26/89/1
f 22/90/3 62/91/14 21/81/14
f 29/92/6 51/93/5 28/94/5
f 24/95/10 64/96/4 23/16/4
f 26/97/1 50/98/19 25/99/19
f 31/100/17 55/101/18 30/102/18
f 19/103/7 59/104/8 18/84/8
f 28/94/5 52/105/2 27/87/2
f 25/99/12 57/106/12 20/78/12
f 32/83/16 54/107/17 31/108/17
f 17/86/9 63/109/10 24/95/10
f 30/102/18 56/110/6 29/92/6
f 7/1/1 6/38/2 48/2/2
f 11/4/3 10/29/4 36/5/4
f 47/7/5 5/39/5 4/8/6
f 38/10/7 39/31/8 15/11/8
f 16/13/9 40/32/9 35/14/10
f 23/16/4 64/96/4 61/17/3
f 34/19/11 41/33/11 1/20/11
f 13/22/12 8/36/12 46/23/12
f 12/27/13 1/111/13 4/112/13
f 1/111/13 2/113/13 3/114/13
f 4/112/13 1/111/13 3/114/13
f 4/112/13 5/115/13 16/116/13
f 5/115/13 6/117/13 8/118/13
f 16/116/13 5/115/13 8/118/13
f 6/117/13 7/119/13 8/118/13
f 8/118/13 13/120/13 16/116/13
f 13/120/13 14/121/13 15/122/13
f 16/116/13 13/120/13 15/122/13
f 16/116/13 9/123/13 4/112/13
f 9/123/13 10/25/13 12/27/13
f 4/112/13 9/123/13 12/27/13
f 12/21/14 11/124/3 33/28/3
f 35/14/10 36/5/4 10/29/4
f 37/24/15 38/125/7 14/30/7
f 16/13/9 15/11/8 39/31/8
f 41/33/16 42/126/17 2/34/17
f 4/8/6 3/41/18 43/35/18
f 8/36/19 7/127/1 45/37/1
f 47/7/5 48/2/2 6/38/2
f 42/40/17 43/35/18 3/41/18
f 25/43/20 34/68/20 33/44/20
f 27/46/20 36/72/20 35/47/20
f 32/49/20 31/74/20 38/50/20
f 30/52/20 29/73/20 40/53/20
f 20/55/20 19/67/20 42/56/20
f 18/58/20 17/69/20 44/59/20
f 21/61/20 46/71/20 45/62/20
f 23/64/20 48/70/20 47/65/20
f 19/67/20 18/58/20 43/60/20
f 20/55/20 41/57/20 34/68/20
f 24/66/20 47/65/20 44/59/20
f 22/63/20 45/62/20 48/70/20
f 32/49/20 37/51/20 46/71/20
f 26/45/20 33/44/20 36/72/20
f 28/48/20 35/47/20 40/53/20
f 31/74/20 30/52/20 39/54/20
f 57/77/20 50/128/20 51/129/20
f 50/128/20 49/130/20 52/131/20
f 51/129/20 50/128/20 52/131/20
f 51/129/20 56/132/20 63/133/20
f 56/132/20 55/134/20 53/135/20
f 63/133/20 56/132/20 53/135/20
f 55/134/20 54/136/20 53/135/20
f 53/135/20 62/137/20 63/133/20
f 62/137/20 61/138/20 64/139/20
f 63/133/20 62/137/20 64/139/20
f 63/133/20 60/140/20 51/129/20
f 60/140/20 59/75/20 57/77/20
f 51/129/20 60/140/20 57/77/20
f 20/78/15 57/106/15 58/79/7
f 21/81/11 62/91/11 53/82/11
f 18/84/8 59/104/8 60/85/9
f 27/87/2 52/105/2 49/88/1
f 22/90/3 61/141/3 62/91/14
f 29/92/6 56/110/6 51/93/5
f 24/95/10 63/109/10 64/96/4
f 26/97/1 49/142/1 50/98/19
f 31/100/17 54/143/17 55/101/18
f 19/103/7 58/144/7 59/104/8
f 28/94/5 51/93/5 52/105/2
f 25/99/12 50/98/12 57/106/12
f 32/83/16 53/82/16 54/107/17
f 17/86/9 60/85/9 63/109/10
f 30/102/18 55/101/18 56/110/6
