# Blender v2.93.4 OBJ File: 'PressurePlate.blend'
# www.blender.org
mtllib PressurePlate2.mtl
o Cube_Cube.001
v -3.150000 -0.180000 3.150000
v -2.520000 0.180000 2.520000
v -3.150000 -0.180000 -3.150000
v -2.520000 0.180000 -2.520000
v 3.150000 -0.180000 3.150000
v 2.520000 0.180000 2.520000
v 3.150000 -0.180000 -3.150000
v 2.520000 0.180000 -2.520000
v -1.672721 0.077330 1.567279
v -1.800000 0.077330 1.260000
v -1.260000 0.077330 1.800000
v -1.567279 0.077330 1.672721
v 1.800000 0.077330 1.260000
v 1.672721 0.077330 1.567279
v 1.567279 0.077330 1.672721
v 1.260000 0.077330 1.800000
v 1.260000 0.077330 -1.800000
v 1.567279 0.077330 -1.672721
v 1.672721 0.077330 -1.567279
v 1.800000 0.077330 -1.260000
v -1.800000 0.077330 -1.260000
v -1.672721 0.077330 -1.567279
v -1.567279 0.077330 -1.672721
v -1.260000 0.077330 -1.800000
vt 0.450000 0.550000
vt 0.000000 0.500000
vt 0.500000 0.500000
vt 0.050000 0.550000
vt 0.000000 1.000000
vt 0.050000 0.950000
vt 0.500000 1.000000
vt 0.450000 0.950000
vt 0.000000 0.500000
vt 0.500000 0.000000
vt 0.500000 0.500000
vt 0.785714 0.042857
vt 0.742857 0.285714
vt 0.500000 0.242857
vt 0.000000 0.000000
vt 0.500000 0.042857
vt 0.542857 0.000000
vt 0.510102 0.018470
vt 0.518470 0.010102
vt 0.742857 0.000000
vt 0.767244 0.010102
vt 0.775613 0.018470
vt 0.785714 0.242857
vt 0.775613 0.267244
vt 0.767244 0.275613
vt 0.542857 0.285714
vt 0.518470 0.275613
vt 0.510102 0.267244
vn -0.4961 0.8682 0.0000
vn 0.0000 0.8682 -0.4961
vn 0.4961 0.8682 0.0000
vn 0.0000 0.8682 0.4961
vn 0.0000 -1.0000 0.0000
vn 0.0000 1.0000 0.0000
usemtl Plate
s off
f 2/1/1 3/2/1 1/3/1
f 4/4/2 7/5/2 3/2/2
f 8/6/3 5/7/3 7/5/3
f 6/8/4 1/3/4 5/7/4
f 7/9/5 1/10/5 3/11/5
f 4/4/6 6/8/6 8/6/6
s 1
f 20/12/5 16/13/5 10/14/5
s off
f 2/1/1 4/4/1 3/2/1
f 4/4/2 8/6/2 7/5/2
f 8/6/3 6/8/3 5/7/3
f 6/8/4 2/1/4 1/3/4
f 7/9/5 5/15/5 1/10/5
f 4/4/6 2/1/6 6/8/6
s 1
f 10/14/5 21/16/5 24/17/5
f 21/16/5 22/18/5 24/17/5
f 22/18/5 23/19/5 24/17/5
f 24/17/5 17/20/5 20/12/5
f 17/20/5 18/21/5 20/12/5
f 18/21/5 19/22/5 20/12/5
f 20/12/5 13/23/5 16/13/5
f 13/23/5 14/24/5 16/13/5
f 14/24/5 15/25/5 16/13/5
f 16/13/5 11/26/5 10/14/5
f 11/26/5 12/27/5 10/14/5
f 12/27/5 9/28/5 10/14/5
f 10/14/5 24/17/5 20/12/5
o Cube.002_Cube.003
v -1.260000 0.257330 1.260000
v -1.260000 0.257330 -1.260000
v 1.260000 0.257330 1.260000
v 1.260000 0.257330 -1.260000
v -1.260000 0.207330 1.260000
v -1.260000 0.207330 -1.260000
v 1.260000 0.207330 -1.260000
v 1.260000 0.207330 1.260000
v -1.260000 0.257330 1.260000
v -1.260000 0.257330 -1.260000
v 1.260000 0.257330 1.260000
v 1.260000 0.257330 -1.260000
v -1.260000 0.207330 1.260000
v -1.260000 0.207330 -1.260000
v 1.260000 0.207330 -1.260000
v 1.260000 0.207330 1.260000
v 1.545442 0.257330 1.545442
v 1.545442 0.257330 -1.545442
v -1.545442 0.257330 -1.545442
v -1.545442 0.257330 1.545442
v -1.672721 -0.042670 1.567279
v -1.800000 -0.042670 1.260000
v -1.800000 0.257330 1.260000
v -1.672721 0.257330 1.567279
v -1.633702 0.257330 1.508883
v -1.260000 -0.042670 1.800000
v -1.567279 -0.042670 1.672721
v -1.567279 0.257330 1.672721
v -1.260000 0.257330 1.800000
v -1.508883 0.257330 1.633702
v 1.800000 -0.042670 1.260000
v 1.672721 -0.042670 1.567279
v 1.567279 -0.042670 1.672721
v 1.260000 -0.042670 1.800000
v 1.260000 0.257330 1.800000
v 1.567279 0.257330 1.672721
v 1.508883 0.257330 1.633702
v 1.672721 0.257330 1.567279
v 1.800000 0.257330 1.260000
v 1.633702 0.257330 1.508883
v 1.260000 -0.042670 -1.800000
v 1.567279 -0.042670 -1.672721
v 1.672721 -0.042670 -1.567279
v 1.800000 -0.042670 -1.260000
v 1.800000 0.257330 -1.260000
v 1.672721 0.257330 -1.567279
v 1.633702 0.257330 -1.508883
v 1.567279 0.257330 -1.672721
v 1.260000 0.257330 -1.800000
v 1.508883 0.257330 -1.633702
v -1.800000 -0.042670 -1.260000
v -1.672721 -0.042670 -1.567279
v -1.567279 -0.042670 -1.672721
v -1.260000 -0.042670 -1.800000
v -1.260000 0.257330 -1.800000
v -1.567279 0.257330 -1.672721
v -1.508883 0.257330 -1.633702
v -1.672721 0.257330 -1.567279
v -1.800000 0.257330 -1.260000
v -1.633702 0.257330 -1.508883
vt 0.731746 0.771429
vt 0.727778 0.571428
vt 0.731746 0.571428
vt 0.735714 0.771429
vt 0.731746 0.571428
vt 0.735714 0.571428
vt 0.739683 0.771429
vt 0.735715 0.571428
vt 0.739683 0.571428
vt 0.727778 0.771429
vt 0.723810 0.571428
vt 0.727778 0.571428
vt 0.809524 0.521936
vt 0.785714 0.721936
vt 0.785714 0.521936
vt 0.809524 0.273162
vt 0.785714 0.473162
vt 0.785714 0.273162
vt 0.500000 0.771429
vt 0.700000 0.571428
vt 0.700000 0.771429
vt 0.785714 0.528571
vt 0.772516 0.548324
vt 0.742857 0.528571
vt 0.518470 0.295816
vt 0.523105 0.298913
vt 0.520203 0.305917
vt 0.767244 0.561327
vt 0.762610 0.558230
vt 0.765511 0.551226
vt 0.500000 0.328571
vt 0.513198 0.308819
vt 0.542857 0.328571
vt 0.775613 0.304184
vt 0.772516 0.308819
vt 0.765511 0.305917
vt 0.751517 0.642857
vt 0.739683 0.619048
vt 0.751517 0.619048
vt 0.742857 0.285714
vt 0.762610 0.298913
vt 0.742857 0.328571
vt 0.809524 0.024387
vt 0.785714 0.224387
vt 0.785714 0.024387
vt 0.723810 0.595816
vt 0.700000 0.795816
vt 0.700000 0.595816
vt 0.510102 0.552959
vt 0.513198 0.548324
vt 0.520203 0.551226
vt 0.775613 0.552959
vt 0.809524 0.000000
vt 0.542857 0.571429
vt 0.523105 0.558230
vt 0.542857 0.528571
vt 0.742857 0.571429
vt 0.809524 0.473162
vt 0.785714 0.497549
vt 0.739683 0.642857
vt 0.751517 0.666667
vt 0.739683 0.666667
vt 0.518470 0.561327
vt 0.500000 0.528571
vt 0.809524 0.248774
vt 0.809524 0.721936
vt 0.785714 0.746323
vt 0.751517 0.595238
vt 0.739683 0.571429
vt 0.751517 0.571429
vt 0.510102 0.304184
vt 0.542857 0.285714
vt 0.809524 0.497549
vt 0.723810 0.795816
vt 0.700000 0.820203
vt 0.751517 0.619048
vt 0.739683 0.595238
vt 0.751517 0.595238
vt 0.767244 0.295816
vt 0.785714 0.328571
vt 0.723810 0.571428
vt 0.809524 0.224387
vt 0.785714 0.248774
vt 0.727778 0.771429
vt 0.731746 0.771429
vt 0.735714 0.771429
vt 0.723810 0.771429
vt 0.500000 0.571428
vt 0.739683 0.642857
vt 0.785714 0.000000
vt 0.809524 0.497549
vt 0.751517 0.642857
vt 0.785714 0.248774
vt 0.809524 0.746323
vt 0.739683 0.595238
vt 0.785714 0.497549
vt 0.723810 0.820203
vt 0.739683 0.619048
vt 0.700000 0.571428
vt 0.809524 0.248774
vn -1.0000 0.0000 0.0000
vn 1.0000 0.0000 0.0000
vn 0.0000 0.0000 -1.0000
vn 0.0000 0.0000 1.0000
vn 0.9808 0.0000 -0.1951
vn 0.9808 0.0000 0.1951
vn 0.1951 0.0000 0.9808
vn -0.1951 0.0000 0.9808
vn 0.0000 1.0000 0.0000
vn 0.5556 0.0000 0.8315
vn 0.8315 0.0000 0.5556
vn -0.9808 0.0000 0.1951
vn -0.9808 0.0000 -0.1951
vn -0.1951 0.0000 -0.9808
vn 0.1951 0.0000 -0.9808
vn -0.8315 0.0000 0.5556
vn -0.5556 0.0000 0.8315
vn 0.8315 0.0000 -0.5556
vn 0.5556 0.0000 -0.8315
vn -0.5556 0.0000 -0.8315
vn -0.8315 0.0000 -0.5556
usemtl Plate
s 1
f 28/29/7 32/30/7 27/31/7
f 25/32/8 30/33/8 26/34/8
f 27/35/9 29/36/9 25/37/9
f 26/38/10 31/39/10 28/40/10
f 69/41/11 55/42/12 68/43/11
f 59/44/13 50/45/14 58/46/13
f 38/47/15 40/48/15 39/49/15
f 47/50/15 49/51/15 33/52/15
f 72/53/15 74/54/15 42/55/15
f 52/56/15 54/57/15 44/58/15
f 69/59/15 71/60/15 36/61/15
f 82/62/15 84/63/15 43/64/15
f 57/65/16 62/66/17 60/67/16
f 79/68/15 81/69/15 34/70/15
f 47/71/18 75/72/19 46/73/18
f 79/74/20 65/75/21 78/76/20
f 62/77/15 64/78/15 41/79/15
f 47/50/15 48/80/15 49/51/15
f 46/73/18 48/81/22 47/71/18
f 59/82/15 61/83/15 35/84/15
f 52/56/15 53/85/15 54/57/15
f 53/86/14 51/87/23 50/45/14
f 52/88/23 45/89/22 51/90/23
f 59/82/15 60/91/15 61/83/15
f 62/77/15 63/92/15 64/78/15
f 58/46/13 60/93/16 59/44/13
f 63/94/12 56/95/17 55/42/12
f 67/96/24 72/97/25 70/98/24
f 69/59/15 70/99/15 71/60/15
f 72/53/15 73/100/15 74/54/15
f 68/43/11 70/101/24 69/41/11
f 73/102/21 66/103/25 65/75/21
f 77/104/26 82/105/27 80/106/26
f 79/68/15 80/107/15 81/69/15
f 82/62/15 83/108/15 84/63/15
f 78/76/20 80/109/26 79/74/20
f 83/110/19 76/111/27 75/72/19
f 28/29/7 31/112/7 32/30/7
f 25/32/8 29/113/8 30/33/8
f 27/35/9 32/114/9 29/36/9
f 26/38/10 30/115/10 31/39/10
f 69/41/11 63/94/12 55/42/12
f 59/44/13 53/86/14 50/45/14
f 38/47/15 37/116/15 40/48/15
f 44/58/15 33/52/15 49/51/15
f 33/52/15 34/70/15 47/50/15
f 34/70/15 43/64/15 84/63/15
f 84/63/15 83/108/15 34/70/15
f 83/108/15 47/50/15 34/70/15
f 42/55/15 71/60/15 70/99/15
f 70/99/15 72/53/15 42/55/15
f 44/58/15 49/51/15 48/80/15
f 48/80/15 52/56/15 44/58/15
f 42/55/15 36/61/15 71/60/15
f 36/61/15 35/84/15 69/59/15
f 35/84/15 41/79/15 64/78/15
f 64/78/15 63/92/15 35/84/15
f 63/92/15 69/59/15 35/84/15
f 43/64/15 81/69/15 80/107/15
f 80/107/15 82/62/15 43/64/15
f 57/65/16 56/117/17 62/66/17
f 43/64/15 34/70/15 81/69/15
f 34/70/15 36/61/15 79/68/15
f 36/61/15 42/55/15 74/54/15
f 74/54/15 73/100/15 36/61/15
f 73/100/15 79/68/15 36/61/15
f 47/71/18 83/110/19 75/72/19
f 79/74/20 73/102/21 65/75/21
f 41/79/15 61/83/15 60/91/15
f 60/91/15 62/77/15 41/79/15
f 46/73/18 45/118/22 48/81/22
f 41/79/15 35/84/15 61/83/15
f 35/84/15 33/52/15 59/82/15
f 33/52/15 44/58/15 54/57/15
f 54/57/15 53/85/15 33/52/15
f 53/85/15 59/82/15 33/52/15
f 53/86/14 52/119/23 51/87/23
f 52/88/23 48/120/22 45/89/22
f 58/46/13 57/121/16 60/93/16
f 63/94/12 62/122/17 56/95/17
f 67/96/24 66/123/25 72/97/25
f 68/43/11 67/124/24 70/101/24
f 73/102/21 72/125/25 66/103/25
f 77/104/26 76/126/27 82/105/27
f 78/76/20 77/127/26 80/109/26
f 83/110/19 82/128/27 76/111/27
